<?xml version="1.0" encoding="utf-8"?>
<!-- Generator: Adobe Illustrator 27.5.0, SVG Export Plug-In . SVG Version: 6.00 Build 0)  -->
<svg version="1.1" id="Capa_1" xmlns="http://www.w3.org/2000/svg" xmlns:xlink="http://www.w3.org/1999/xlink" x="0px" y="0px"
	 viewBox="0 0 2122 2122" style="enable-background:new 0 0 2122 2122;" xml:space="preserve">
<g>
	<path style="fill:#444183;" d="M1989.359,442.021H131.963c-18.802,0-34.185,15.72-34.185,34.936v1167.409
		c0,19.216,15.384,34.935,34.185,34.935h1857.396c18.799,0,34.182-15.719,34.182-34.935V476.957
		C2023.541,457.741,2008.157,442.021,1989.359,442.021z"/>
	<path style="fill:#73579F;" d="M1926.969,1541.81c0,24.923-20.207,45.128-45.13,45.128c-14.559,0-27.472-6.922-35.722-17.623
		l-41.493,75.063h144.226c18.051,0,32.819-14.772,32.819-32.821v-287.466l-95.522,172.807
		C1909.047,1499.068,1926.969,1518.339,1926.969,1541.81z"/>
	<path style="fill:#73579F;" d="M1948.849,481.933h-545.064l-80.105,109.693h469.78c17.769,0,32.304,15.029,32.304,33.396v334.697
		L1981.668,735.1V514.752C1981.668,496.703,1966.9,481.933,1948.849,481.933z"/>
	<path style="fill:#73579F;" d="M285.87,625.022c0-18.368,14.538-33.396,32.304-33.396h513.611l114.709-109.693H165.522
		c-18.053,0-32.821,14.77-32.821,32.819v745.387l153.169-146.471V625.022z"/>
	<path style="fill:#73579F;" d="M786.188,1327.654h642.569c38.555,0,72.049,26.412,81.062,63.881v0.005l4.169,17.376l78.566-113.196
		H809.509L786.188,1327.654z"/>
	<path style="fill:#A186BD;" d="M1825.765,1262.325c0,18.368-14.536,33.396-32.304,33.396h-200.906l-78.566,113.196l53.541,223.154
		l2.953,12.307h234.141l41.493-75.063c-5.876-7.619-9.408-17.139-9.408-27.505c0-24.926,20.204-45.13,45.13-45.13
		c1.454,0,2.888,0.083,4.307,0.218l95.522-172.807V735.1l-155.903,224.619V1262.325z"/>
	<polygon style="fill:#A186BD;" points="1323.681,591.626 1403.786,481.933 946.495,481.933 831.786,591.626 	"/>
	<path style="fill:#A186BD;" d="M640.237,1327.654h145.951l23.32-31.934H318.174c-17.766,0-32.304-15.028-32.304-33.396v-148.656
		l-153.169,146.471v351.417c0,18.049,14.768,32.821,32.821,32.821h338.043l55.291-251.284
		C567.251,1354.873,601.114,1327.657,640.237,1327.654z"/>
	<path style="fill:#543B8A;" d="M1513.989,1408.916l-4.169-17.376v-0.005c-9.013-37.469-42.507-63.881-81.062-63.881h-788.52
		c-39.123,0.002-72.987,27.218-81.381,65.44l-55.291,251.284h1066.917l-2.953-12.307L1513.989,1408.916z"/>
	<path style="fill:#E44390;" d="M1545.174,1624.421l-54.758-228.221c-6.855-28.504-32.328-48.592-61.659-48.59h-788.52
		c-29.744-0.005-55.499,20.692-61.884,49.742l-49.965,227.069H1545.174z"/>
	<path style="fill:#543B8A;" d="M318.174,591.626c-17.766,0-32.304,15.029-32.304,33.396v637.302
		c0,18.368,14.538,33.396,32.304,33.396h1475.286c17.769,0,32.304-15.028,32.304-33.396V625.022
		c0-18.368-14.536-33.396-32.304-33.396H318.174z"/>
	<path style="fill:#E44390;" d="M307.75,742.869v499.582c0,17.265,14.124,31.389,31.388,31.389h1433.36
		c17.262,0,31.386-14.124,31.386-31.389V742.869H307.75z"/>
	<path style="fill:#543B8A;" d="M629.029,804.398c-110.329,0.036-200.438,90.144-200.475,200.475
		c0.036,110.329,90.146,200.436,200.475,200.475h853.577c110.329-0.039,200.438-90.146,200.475-200.475
		c-0.036-110.331-90.146-200.438-200.475-200.475H629.029z"/>
	<path style="fill:#29B6BC;" d="M1610.09,877.39c-32.765-32.75-77.849-53.033-127.484-53.035H629.029
		c-49.637,0.003-94.719,20.285-127.483,53.035c-32.75,32.763-53.033,77.846-53.038,127.483
		c0.005,49.634,20.287,94.719,53.038,127.483c32.764,32.75,77.846,53.033,127.483,53.035h853.577
		c49.634-0.002,94.719-20.285,127.484-53.035c32.75-32.765,53.032-77.849,53.037-127.483
		C1663.122,955.236,1642.84,910.152,1610.09,877.39z"/>
	<path style="fill:#FFD548;" d="M339.139,612.087c-17.264,0-31.388,14.127-31.388,31.389v99.393h1496.134v-99.393
		c0-17.262-14.124-31.389-31.386-31.389H339.139z"/>
	
		<ellipse transform="matrix(0.0118 -0.9999 0.9999 0.0118 -1301.0575 1761.7124)" style="fill:#543B8A;" cx="240.74" cy="1539.075" rx="45.13" ry="45.13"/>
	<circle style="fill:#543B8A;" cx="221.595" cy="562.62" r="45.13"/>
	<circle style="fill:#543B8A;" cx="1892.779" cy="562.62" r="45.13"/>
	
		<ellipse transform="matrix(0.7071 -0.7071 0.7071 0.7071 -704.3417 1145.2261)" style="fill:#543B8A;" cx="1030.239" cy="1422.829" rx="45.13" ry="45.13"/>
	<path style="fill:#543B8A;" d="M1881.838,1586.938c24.923,0,45.13-20.205,45.13-45.128c0-23.471-17.922-42.743-40.823-44.913
		c-1.419-0.135-2.853-0.218-4.307-0.218c-24.926,0-45.13,20.205-45.13,45.13c0,10.366,3.532,19.886,9.408,27.505
		C1854.367,1580.016,1867.28,1586.938,1881.838,1586.938z"/>
	<path style="fill:#543B8A;" d="M651.706,891.96c-62.84,0-113.78,50.94-113.78,113.778c0,62.841,50.94,113.781,113.78,113.781
		c62.838,0,113.778-50.94,113.778-113.781C765.484,942.9,714.544,891.96,651.706,891.96z"/>
	<path style="fill:#E44390;" d="M615.378,944.971c-33.33,19.836-44.271,62.935-24.434,96.263
		c19.834,33.33,62.933,44.27,96.263,24.434c33.33-19.834,44.268-62.933,24.434-96.263
		C691.803,936.074,648.705,925.136,615.378,944.971z"/>
	<path style="fill:#543B8A;" d="M1157.827,933.809h-107.24v141.244h107.24c17.264,0,31.389-14.124,31.389-31.389v-78.467
		C1189.216,947.933,1175.091,933.809,1157.827,933.809z"/>
	<path style="fill:#543B8A;" d="M930.269,933.809c-17.262,0-31.388,14.124-31.388,31.388v78.467
		c0,17.264,14.126,31.389,31.388,31.389h18.309V933.809H930.269z"/>
	<path style="fill:#FFD548;" d="M626.802,1579.291h809.609c18.051,0,32.821-14.77,32.821-32.823v-16.411
		c0-18.051-14.77-32.821-32.821-32.821H626.802c-18.051,0-32.821,14.77-32.821,32.821v16.411
		C593.982,1564.522,608.751,1579.291,626.802,1579.291z"/>
	<rect x="948.578" y="933.809" style="fill:#E44390;" width="102.01" height="141.244"/>
	<path style="fill:#543B8A;" d="M1458.577,891.96c-62.838,0-113.778,50.94-113.778,113.778c0,62.841,50.941,113.781,113.778,113.781
		c62.84,0,113.781-50.94,113.781-113.781C1572.358,942.9,1521.417,891.96,1458.577,891.96z"/>
	<path style="fill:#E44390;" d="M1422.248,944.971c-33.328,19.836-44.268,62.935-24.434,96.263
		c19.837,33.33,62.936,44.27,96.265,24.434c33.33-19.834,44.268-62.933,24.434-96.263
		C1498.677,936.074,1455.578,925.136,1422.248,944.971z"/>
</g>
</svg>
